<svg width="140" height="25" viewBox="0 0 140 25" fill="none" xmlns="http://www.w3.org/2000/svg">
<path fill-rule="evenodd" clip-rule="evenodd" d="M51.4346 24.4131H45.9418C46.2038 16.2896 46.3348 8.1916 45.9331 0.00854492H46.5357H55.5476C60.0885 0.0170512 63.7038 3.15587 64.088 7.53661C64.4723 11.9514 61.4334 15.473 57.3378 16.2471C56.0172 16.4989 54.6854 16.4675 53.3559 16.4362C53.0238 16.4284 52.6918 16.4206 52.3603 16.4172H51.1639C51.1028 19.1052 51.1202 21.7421 51.4346 24.4131ZM51.3288 11.8698L51.3288 11.8698C51.4015 11.8816 51.4643 11.8918 51.5307 11.8918C51.9851 11.8918 52.4385 11.8928 52.8916 11.8937H52.8919C53.7971 11.8956 54.701 11.8975 55.6088 11.8918C55.9319 11.8918 56.255 11.8323 56.5606 11.7557C58.4468 11.2539 59.3637 9.45053 59.1542 7.81732C58.9009 5.80984 57.5037 4.56792 55.5564 4.5424C54.2639 4.53389 52.9628 4.52539 51.6704 4.52539C51.542 4.52539 51.4137 4.54066 51.2894 4.55545H51.2894H51.2894L51.2893 4.55545L51.2893 4.55546L51.2892 4.55546H51.2892C51.2529 4.55979 51.2169 4.56407 51.1814 4.56792V11.8493H51.1901C51.2413 11.8555 51.2867 11.8629 51.3288 11.8698ZM82.6097 7.05176H87.8056C87.8782 7.39829 87.9481 7.74352 88.0178 8.08743L88.0179 8.08823L88.018 8.08831C88.1996 8.98509 88.3794 9.87298 88.6003 10.752C88.7627 11.4029 88.9498 12.0466 89.1366 12.6895L89.1367 12.6898L89.1368 12.6901L89.1369 12.6904C89.3015 13.257 89.466 13.823 89.6132 14.3927C89.6982 14.7193 89.7807 15.0459 89.8632 15.3726L89.8632 15.3726L89.8635 15.3741L89.8639 15.3753C90.0862 16.2562 90.3089 17.1383 90.5826 18.0249C91.0753 15.759 91.7771 13.5589 92.4791 11.3581L92.4791 11.358L92.4791 11.358L92.4791 11.358L92.4792 11.3577C92.9341 9.93159 93.3891 8.50513 93.7874 7.06026H98.241C98.6055 8.39427 99.0196 9.71371 99.4334 11.0324L99.4334 11.0325L99.4335 11.0325L99.4335 11.0326L99.4335 11.0326C100.16 13.3464 100.885 15.6579 101.341 18.0419H101.341C101.385 18.0419 101.428 18.0419 101.472 18.0334C101.489 18.001 101.509 17.9686 101.529 17.936L101.529 17.936C101.573 17.8657 101.617 17.7941 101.629 17.7187C101.851 16.2144 102.279 14.7605 102.707 13.3055L102.707 13.3053L102.707 13.3051C102.938 12.5222 103.168 11.7391 103.367 10.9476C103.558 10.1824 103.718 9.40591 103.878 8.6306L103.878 8.62979L103.878 8.62905C103.959 8.23287 104.041 7.83699 104.127 7.44305C104.147 7.353 104.176 7.26294 104.209 7.16554L104.209 7.16483C104.219 7.13364 104.23 7.10171 104.24 7.06877H109.445L108.719 9.27886C107.051 14.3628 105.389 19.4265 103.734 24.4641H99.2627C98.89 23.1475 98.4729 21.8465 98.0561 20.5469C97.3206 18.253 96.5865 15.9637 96.1015 13.6016C96.0491 13.6016 95.988 13.6016 95.9356 13.5931C95.8736 13.8573 95.8139 14.1223 95.7542 14.3872L95.7542 14.3873L95.7542 14.3873L95.7542 14.3874L95.7541 14.3875L95.7541 14.3875L95.7541 14.3875C95.6121 15.0178 95.4703 15.6473 95.2981 16.2641C95.1344 16.8524 94.9488 17.4336 94.7626 18.0169L94.7626 18.0169L94.7626 18.017L94.7626 18.017L94.7623 18.0178L94.7621 18.0184L94.762 18.0188C94.6603 18.3373 94.5584 18.6564 94.4598 18.9776C94.3201 19.4284 94.1782 19.8793 94.0363 20.3301C93.8944 20.7809 93.7525 21.2318 93.6127 21.6826C93.3874 22.4098 93.1563 23.137 92.9196 23.8821L92.9186 23.8851L92.9184 23.8858L92.7482 24.4216H88.2684L87.846 23.126L87.8382 23.102C86.1028 17.7793 84.36 12.4337 82.6097 7.05176ZM115.654 19.9048C114.894 19.3434 114.37 18.6118 114.143 17.6336H127.617C127.63 17.5652 127.644 17.4997 127.657 17.4361L127.657 17.4355C127.691 17.2779 127.722 17.1325 127.722 16.9871C127.724 16.7577 127.732 16.527 127.74 16.2959C127.76 15.6872 127.781 15.0758 127.705 14.4778C127.312 11.4835 125.853 9.1273 123.111 7.63019C121.26 6.61794 119.243 6.35425 117.156 6.66898C114.125 7.11981 111.803 8.59991 110.344 11.2539C109.392 12.9977 109.096 14.8605 109.296 16.8085C109.602 19.7942 111.008 22.1504 113.706 23.6816C115.942 24.949 118.387 25.2127 120.911 24.8469C123.233 24.5152 125.146 23.4689 126.604 21.6656C126.669 21.5859 126.721 21.4947 126.78 21.3922C126.809 21.3415 126.84 21.288 126.875 21.2318L126.236 20.8728C125.204 20.2937 124.198 19.7292 123.199 19.1647C123.106 19.2464 123.02 19.3263 122.935 19.4039L122.935 19.4043L122.935 19.4043C122.756 19.5691 122.588 19.7235 122.404 19.8622C120.588 21.2233 117.487 21.2488 115.654 19.9048ZM123.024 14.095H114.117H114.108C114.405 12.2066 116.134 10.5649 118.832 10.6499C121.085 10.718 122.972 12.2746 123.024 14.095ZM73.3969 6.51587C78.7761 6.51587 82.8979 10.5479 82.8979 15.8047C82.8979 20.9255 78.7063 24.949 73.3794 24.949C68.0089 24.949 63.9046 20.9085 63.9133 15.6261C63.9133 10.5393 68.1137 6.51587 73.3969 6.51587ZM68.5591 15.7282C68.5591 18.4502 70.6461 20.5257 73.3881 20.5342C76.1651 20.5342 78.2871 18.4332 78.2696 15.7027C78.2434 12.9721 76.1826 10.9562 73.3969 10.9476C70.6287 10.9476 68.5591 12.9892 68.5591 15.7282ZM134.298 7.0943H129.67H129.652C130.036 12.9381 130.045 18.7139 129.643 24.4982H134.839C134.837 24.4415 134.836 24.3869 134.834 24.3341C134.829 24.1489 134.825 23.985 134.804 23.8262C134.499 21.1722 134.525 18.5012 134.595 15.8388C134.647 13.8228 135.852 12.3852 137.878 11.9174C138.336 11.8086 138.811 11.7692 139.293 11.7291C139.527 11.7096 139.763 11.69 140 11.6622V6.72853C137.363 6.80509 135.677 8.05551 134.839 10.4458C134.77 10.4394 134.705 10.433 134.64 10.4266C134.532 10.416 134.423 10.4054 134.298 10.3947V7.0943Z" fill="white"/>
<path d="M19.8665 0.518799V17.3272L0 22.3289V5.55453L19.8665 0.518799Z" fill="white"/>
<path d="M33.2448 2.6709V19.4878L13.3782 24.4895V7.71513L33.2448 2.6709Z" fill="white"/>
<path d="M13.3782 7.71512L19.8665 6.0564V17.3272L13.3521 18.9519L13.3782 7.71512Z" fill="white"/>
</svg>
