<svg width="56" height="56" viewBox="0 0 56 56" fill="none" xmlns="http://www.w3.org/2000/svg">
<path d="M28.0002 30.7999C29.5466 30.7999 30.8002 29.5463 30.8002 28C30.8002 26.4536 29.5466 25.2 28.0002 25.2C26.4538 25.2 25.2002 26.4536 25.2002 28C25.2002 29.5463 26.4538 30.7999 28.0002 30.7999Z" stroke="#2B2A29" stroke-width="2" stroke-miterlimit="10"/>
<mask id="mask0_166_11080" style="mask-type:luminance" maskUnits="userSpaceOnUse" x="5" y="5" width="46" height="46">
<path d="M37.2732 5.59998H18.726L5.59961 18.7264V37.2736L18.726 50.4H37.2732L50.3996 37.2736V18.7264L37.2732 5.59998ZM39.1996 32.6368L32.6364 39.2H23.3628L16.7996 32.6368V23.3632L23.3628 16.8H32.6364L39.1996 23.3632V32.6368Z" fill="white"/>
</mask>
<g mask="url(#mask0_166_11080)">
<path d="M61.9185 28H-5.91992M27.9993 61.9192V-5.91919M51.9841 51.9848L4.01448 4.01521M4.01448 51.9848L51.9841 4.01521" stroke="#2B2A29" stroke-width="2" stroke-miterlimit="10"/>
</g>
</svg>
