<svg width="175" height="32" viewBox="0 0 175 32" fill="none" xmlns="http://www.w3.org/2000/svg">
<path d="M4.36096 26.0947L35.3609 17.2376L67.468 23.6037L100.959 16.1018L135.834 19.4519L169.602 5.77246" stroke="#F5F5F5" stroke-width="3"/>
<path d="M169.092 9.81682C171.25 9.81682 173 8.06696 173 5.90841C173 3.74985 171.25 2 169.092 2C166.933 2 165.183 3.74985 165.183 5.90841C165.183 8.06696 166.933 9.81682 169.092 9.81682Z" fill="#7756FF" stroke="#F5F5F5" stroke-width="3"/>
<path d="M135.769 22.9633C137.927 22.9633 139.677 21.2134 139.677 19.0549C139.677 16.8963 137.927 15.1465 135.769 15.1465C133.61 15.1465 131.86 16.8963 131.86 19.0549C131.86 21.2134 133.61 22.9633 135.769 22.9633Z" fill="#7756FF" stroke="#F5F5F5" stroke-width="3"/>
<path d="M102.09 19.2072C104.249 19.2072 105.999 17.4573 105.999 15.2988C105.999 13.1402 104.249 11.3904 102.09 11.3904C99.9317 11.3904 98.1819 13.1402 98.1819 15.2988C98.1819 17.4573 99.9317 19.2072 102.09 19.2072Z" fill="#7756FF" stroke="#F5F5F5" stroke-width="3"/>
<path d="M68.5896 27.9631C70.7481 27.9631 72.498 26.2132 72.498 24.0546C72.498 21.8961 70.7481 20.1462 68.5896 20.1462C66.431 20.1462 64.6812 21.8961 64.6812 24.0546C64.6812 26.2132 66.431 27.9631 68.5896 27.9631Z" fill="#7756FF" stroke="#F5F5F5" stroke-width="3"/>
<path d="M36.2058 21.2629C38.3643 21.2629 40.1142 19.513 40.1142 17.3545C40.1142 15.1959 38.3643 13.446 36.2058 13.446C34.0472 13.446 32.2974 15.1959 32.2974 17.3545C32.2974 19.513 34.0472 21.2629 36.2058 21.2629Z" fill="#7756FF" stroke="#F5F5F5" stroke-width="3"/>
<path d="M6.05513 30.1965C8.21368 30.1965 9.96354 28.4466 9.96354 26.288C9.96354 24.1295 8.21368 22.3796 6.05513 22.3796C3.89658 22.3796 2.14673 24.1295 2.14673 26.288C2.14673 28.4466 3.89658 30.1965 6.05513 30.1965Z" fill="#7756FF" stroke="#F5F5F5" stroke-width="3"/>
</svg>
