<?xml version="1.0" encoding="UTF-8"?> <svg xmlns="http://www.w3.org/2000/svg" xmlns:xlink="http://www.w3.org/1999/xlink" width="1091px" height="200px" viewBox="0 0 1090 200" version="1.1"><g id="surface1"><path style=" stroke:none;fill-rule:nonzero;fill:rgb(28.627451%,0%,100%);fill-opacity:1;" d="M 432.367188 0 L 357.277344 0 L 359.519531 36.019531 L 359.378906 164.160156 L 357.054688 195.433594 L 400.089844 195.433594 L 397.871094 164.160156 L 397.871094 131.230469 L 432.183594 131.230469 C 469.851562 131.230469 498.898438 102.261719 498.9375 65.695312 C 498.976562 29.132812 470.011719 0.0390625 432.367188 0 Z M 432.246094 95.191406 L 397.929688 95.191406 L 397.929688 36 L 432.246094 36 C 448.695312 36 460.6875 48.605469 460.667969 65.636719 C 460.644531 82.667969 448.714844 95.210938 432.246094 95.191406 Z M 571.21875 52.082031 C 530.578125 52.179688 497.695312 85.210938 497.746094 125.890625 C 497.796875 166.566406 530.761719 199.515625 571.40625 199.515625 C 612.046875 199.511719 645.011719 166.5625 645.058594 125.886719 C 645.289062 106.222656 637.582031 87.300781 623.679688 73.40625 C 609.78125 59.511719 590.863281 51.824219 571.21875 52.082031 Z M 571.078125 164.304688 C 549.886719 164.304688 533.433594 148.363281 533.472656 125.738281 C 533.515625 103.109375 549.964844 87.230469 571.179688 87.253906 C 592.394531 87.273438 609.089844 103.210938 609.066406 125.839844 C 609.046875 148.464844 592.554688 164.34375 571.078125 164.304688 Z M 923.875 52.484375 C 880.074219 52.484375 850.199219 84.503906 850.140625 126.121094 C 850.078125 167.738281 879.628906 199.859375 926.5 199.898438 C 953.265625 199.898438 974.199219 189.070312 987.339844 170.101562 L 958.191406 153.3125 C 952.136719 161.394531 940.871094 167.253906 926.925781 167.230469 C 907.949219 167.230469 892.609375 159.394531 887.625 140.96875 L 992.789062 141.089844 C 993.703125 136.214844 994.175781 131.265625 994.199219 126.304688 C 994.320312 85.230469 965.074219 52.546875 923.875 52.484375 Z M 887.261719 113.089844 C 891.457031 95.230469 904.597656 84.808594 923.835938 84.949219 C 938.894531 84.949219 953.953125 93.03125 958.394531 113.230469 Z M 1089.394531 53.777344 L 1089.394531 93.980469 C 1070.703125 91.738281 1047.003906 100.039062 1047.003906 129.394531 L 1047.003906 166.625 L 1049.246094 196.121094 L 1008.714844 196.121094 L 1011.035156 166.203125 L 1011.035156 88.28125 L 1008.796875 56.523438 L 1044.988281 56.523438 L 1044.988281 83.617188 L 1049.429688 83.617188 C 1055.664062 62.847656 1071.914062 53.777344 1089.394531 53.777344 Z M 851.410156 56.324219 L 806.902344 195.859375 L 772.589844 195.859375 L 751.351562 125.496094 L 748.042969 108.324219 L 745.921875 108.324219 L 742.714844 125.695312 L 721.335938 195.859375 L 687.023438 195.859375 L 642.835938 56.222656 L 683.328125 56.222656 L 687.929688 81.191406 L 700.285156 126.039062 L 703.675781 144.625 L 705.695312 144.625 L 709.308594 126.039062 L 730.097656 56.304688 L 730.097656 56.183594 L 764.050781 56.183594 L 764.050781 56.304688 L 784.597656 126 L 788.171875 144.585938 L 790.1875 144.585938 L 793.640625 126 L 805.953125 81.554688 L 810.757812 56.140625 Z M 154.699219 46.605469 L 258.976562 19.433594 L 258.8125 153.597656 L 104.277344 194 L 104.277344 149.554688 L 0 176.808594 L 0.160156 42.644531 L 154.699219 2.242188 Z M 154.699219 46.605469 "></path></g></svg> 