<svg width="1361" height="364" viewBox="0 0 1361 364" fill="none" xmlns="http://www.w3.org/2000/svg">
<g clip-path="url(#clip0_166_15208)">
<path fill-rule="evenodd" clip-rule="evenodd" d="M80.5537 354.732H1.22869C5.02032 237.232 6.91614 119.932 1.12891 1.53223H140.023C205.578 1.63223 257.863 47.1322 263.35 110.532C268.938 174.432 225.035 225.432 165.866 236.632C146.808 240.232 127.55 239.832 108.293 239.332C103.503 239.232 98.7137 239.132 93.9242 239.032H76.6623C75.7643 277.932 76.0636 316.132 80.5537 354.732ZM77.0614 172.932C77.7599 172.932 78.4583 173.132 79.057 173.232C80.1546 173.432 81.0526 173.532 81.9506 173.532C88.5361 173.532 95.0218 173.532 101.607 173.532C114.678 173.532 127.75 173.532 140.821 173.532C145.51 173.532 150.2 172.632 154.59 171.532C181.83 164.232 195.101 138.132 192.008 114.532C188.316 85.4322 168.16 67.5322 140.023 67.1322C121.364 67.0322 102.605 66.9322 83.8465 66.9322C65.0878 66.9322 80.1546 67.1322 78.3586 67.3322C77.8597 67.3322 77.3608 67.4322 76.7621 67.5322V172.932H76.8619H77.0614Z" fill="#2B2A29"/>
<path fill-rule="evenodd" clip-rule="evenodd" d="M757.76 103.532L804.057 262.232C808.049 249.432 844.169 103.432 844.169 103.432H919.203C893.959 181.032 837.484 354.832 837.484 354.832H772.727C772.028 352.632 727.626 201.932 726.728 198.032H724.034C723.136 201.832 678.734 352.532 678.035 354.832H613.278C613.278 354.832 556.703 181.032 531.559 103.432H606.593C606.593 103.432 642.713 249.432 646.705 262.232L693.002 103.532" fill="#2B2A29"/>
<path fill-rule="evenodd" clip-rule="evenodd" d="M907.93 136.532L907.73 137.032L907.93 136.532Z" fill="#2B2A29"/>
<path fill-rule="evenodd" clip-rule="evenodd" d="M1008.31 289.532C997.332 281.432 989.749 270.832 986.456 256.632H1181.13C1181.33 255.632 1181.53 254.732 1181.73 253.732C1182.22 251.432 1182.62 249.332 1182.62 247.232C1182.62 243.932 1182.72 240.532 1182.82 237.232C1183.12 228.432 1183.42 219.532 1182.32 210.932C1176.64 167.632 1155.58 133.432 1115.97 111.832C1089.23 97.1322 1060.09 93.3322 1029.96 97.9322C986.157 104.432 952.631 125.932 931.577 164.332C917.808 189.532 913.517 216.532 916.411 244.732C920.801 287.932 941.156 322.032 980.07 344.232C1012.4 362.532 1047.72 366.432 1084.14 361.132C1117.67 356.332 1145.31 341.232 1166.36 315.032C1167.26 313.832 1168.06 312.532 1168.85 311.032C1169.25 310.332 1169.75 309.532 1170.25 308.732C1167.16 307.032 1164.06 305.232 1160.97 303.532C1146.1 295.132 1131.54 287.032 1117.17 278.832C1115.87 280.032 1114.57 281.132 1113.38 282.332C1110.78 284.732 1108.39 286.932 1105.69 288.932C1079.45 308.632 1034.65 309.032 1008.21 289.532H1008.31ZM1114.77 205.432H985.957C990.248 178.132 1015.19 154.332 1054.21 155.532C1086.74 156.532 1113.98 179.032 1114.77 205.432Z" fill="#2B2A29"/>
<path fill-rule="evenodd" clip-rule="evenodd" d="M397.853 95.7322C475.582 95.7322 535.151 154.132 535.151 230.232C535.151 306.332 474.584 362.632 397.654 362.632C320.724 362.632 260.756 304.132 260.856 227.632C260.856 154.032 321.522 95.7322 397.853 95.7322ZM328.007 229.032C328.007 268.432 358.141 298.432 397.754 298.632C437.865 298.632 468.498 268.232 468.298 228.732C467.899 189.232 438.164 160.032 397.953 159.932C357.941 159.932 328.107 189.532 328.107 229.132L328.007 229.032Z" fill="#2B2A29"/>
<path fill-rule="evenodd" clip-rule="evenodd" d="M1277.61 104.032H1210.46C1216.05 188.632 1216.15 272.232 1210.36 355.932H1285.4C1285.4 355.132 1285.4 354.332 1285.4 353.532C1285.4 350.832 1285.3 348.432 1285 346.132C1280.61 307.732 1281.01 269.032 1282.01 230.532C1282.8 201.332 1300.17 180.532 1329.4 173.732C1335.99 172.132 1342.87 171.632 1349.86 171.032C1353.25 170.732 1356.64 170.432 1360.03 170.032V98.6323C1321.92 99.7323 1297.57 117.832 1285.5 152.432C1284.5 152.432 1283.6 152.232 1282.6 152.132C1281.01 151.932 1279.51 151.832 1277.61 151.632V103.832V104.032Z" fill="#2B2A29"/>
</g>
<defs>
<clipPath id="clip0_166_15208">
<rect width="1360" height="363" fill="white" transform="translate(0.53125 0.832031)"/>
</clipPath>
</defs>
</svg>
