<svg width="28" height="37" viewBox="0 0 28 37" fill="none" xmlns="http://www.w3.org/2000/svg">
<g clip-path="url(#clip0_166_14268)">
<path d="M14.0012 18.3994L25.5988 29.773C26.051 30.2187 26.359 30.7899 26.4828 31.4127C26.6066 32.0354 26.5405 32.681 26.293 33.2657C26.0456 33.8505 25.6283 34.3475 25.0951 34.6922C24.562 35.037 23.9375 35.2137 23.3028 35.1994H4.69955C4.06478 35.2137 3.44035 35.037 2.90718 34.6922C2.37401 34.3475 1.95668 33.8505 1.70927 33.2657C1.46185 32.681 1.39576 32.0354 1.51955 31.4127C1.64334 30.7899 1.95131 30.2187 2.40355 29.773L14.0012 18.3994ZM14.0012 18.3994L2.36435 7.08745C1.91126 6.64309 1.60199 6.07296 1.47657 5.45086C1.35116 4.82875 1.41538 4.18333 1.66092 3.59813C1.90646 3.01294 2.32201 2.51493 2.85378 2.16857C3.38555 1.82221 4.00905 1.64346 4.64355 1.65545L23.342 1.59945C23.9772 1.58402 24.6024 1.75988 25.1365 2.10422C25.6705 2.44855 26.0888 2.94546 26.3369 3.53046C26.585 4.11545 26.6516 4.76152 26.5279 5.38481C26.4043 6.00811 26.0962 6.57985 25.6436 7.02585L14.0012 18.3994ZM14.0012 8.66665V28.1322M24.9548 18.3994H3.04755" stroke="#2B2A29" stroke-width="2" stroke-miterlimit="10"/>
</g>
<defs>
<clipPath id="clip0_166_14268">
<rect width="28" height="36" fill="white" transform="translate(0 0.399414)"/>
</clipPath>
</defs>
</svg>
