<?xml version="1.0" encoding="UTF-8"?><svg id="Layer_2" xmlns="http://www.w3.org/2000/svg" viewBox="0 0 1895.12 375.29"><defs><style>.cls-1{fill:#fe2c55;}.cls-2{fill:#fff;}.cls-3{fill:#25f4ee;}</style></defs><g id="Lockup"><path class="cls-3" d="M119.61,137.47v-14.15c-4.65-.63-9.38-1.03-14.2-1.03C47.29,122.29,0,169.58,0,227.7c0,35.66,17.82,67.22,45,86.31-.49-.53-.98-1.07-1.47-1.61-16.64-18.65-26.2-43.24-26.2-70.16,0-57.29,45.31-103.43,102.28-104.76Z"/><path class="cls-3" d="M122.1,290.77c25.93,0,47.51-21.02,48.47-46.72l.11-229.08,41.58.07-.1-.51c-.87-4.72-1.35-9.57-1.35-14.53h-57.27l-.09,229.51c-.96,25.7-22.12,46.33-48.05,46.33-8.06,0-15.65-2.02-22.33-5.53,8.75,12.13,22.96,20.46,39.02,20.46Z"/><path class="cls-3" d="M290.49,93.34v-13.67c-16,0-30.89-4.76-43.39-12.9,11.12,12.78,26.24,22.9,43.39,26.57Z"/><path class="cls-1" d="M247.1,66.77c-12.19-14-19.59-32.26-19.59-52.24h-15.75c4.04,21.82,17.4,40.54,35.34,52.24Z"/><path class="cls-1" d="M105.41,179.13c-26.54,0-48.58,22.03-48.58,48.58,0,18.48,10.92,34.55,26.25,42.61-5.71-7.91-9.12-17.59-9.12-28.08,0-26.55,21.6-48.14,48.14-48.14,4.96,0,9.71.82,14.21,2.23v-58.47c-4.65-.63-9.38-1.03-14.21-1.03-.83,0-1.66.04-2.49.06l-.39.05-.04,44.15c-4.5-1.41-8.81-1.97-13.77-1.97Z"/><path class="cls-1" d="M290.49,92.43l-.3-.06-.13,44.08c-29.7,0-57.11-9.67-79.57-25.79l-.06,117.04c0,58.12-46.9,104.98-105.02,104.98-22.46,0-43.29-6.66-60.41-18.68,19.26,20.67,46.69,33.64,77.1,33.64,58.12,0,105.41-47.29,105.41-105.41v-116.38c22.46,16.12,49.98,25.62,79.68,25.62v-57.27c-5.73,0-11.31-.62-16.69-1.77Z"/><path class="cls-2" d="M210.82,227.7v-116.38c22.46,16.12,49.98,25.62,79.68,25.62v-44.51c-17.15-3.67-32.26-12.88-43.39-25.66-17.94-11.7-30.89-30.42-34.93-52.24h-41.93l-.09,229.51c-.96,25.7-22.12,46.33-48.05,46.33-16.06,0-30.27-7.94-39.02-20.06-15.32-8.06-25.81-24.13-25.81-42.61,0-26.55,21.6-48.14,48.14-48.14,4.96,0,9.71.82,14.2,2.23v-44.9c-56.97,1.33-102.92,48.06-102.92,105.35,0,27.71,10.76,52.94,28.31,71.77,17.12,12.02,37.95,19.1,60.41,19.1,58.12,0,105.41-47.29,105.41-105.41Z"/><path class="cls-2" d="M337.36,48.57h93.85l-8.62,26.85h-24.35s0,99.26,0,99.26h-30.34v-99.27l-30.52.06-.02-26.9Z"/><path class="cls-2" d="M584.94,48.57h96.02l-8.62,26.85h-26.47s0,99.26,0,99.26h-30.38v-99.27l-30.52.06-.02-26.9Z"/><polygon class="cls-2" points="436.93 88.69 467.02 88.69 466.98 174.68 437.11 174.68 436.93 88.69"/><path class="cls-2" d="M478.95,48.22h30.06v58.73l29.79-29.23h35.88s-37.68,36.56-37.68,36.56l42.2,60.4h-33.11l-28.16-41.88-8.91,8.66v33.22h-30.06V48.22Z"/><path class="cls-2" d="M797.4,48.22h30.06v58.73l29.79-29.23h35.88s-37.68,36.56-37.68,36.56l42.2,60.4h-33.11l-28.16-41.88-8.91,8.66v33.22h-30.06V48.22Z"/><circle class="cls-2" cx="451.96" cy="63.71" r="15.15"/><path class="cls-3" d="M677.11,123.2c0-27.07,20.9-49.25,47.44-51.3-1.33-.1-3.15-.17-4.51-.17-28.43,0-51.48,23.05-51.48,51.48s23.05,51.48,51.48,51.48c1.36,0,3.18-.07,4.51-.17-26.54-2.06-47.44-24.23-47.44-51.31Z"/><path class="cls-1" d="M736.24,71.72c-1.37,0-3.2.07-4.54.17,26.53,2.08,47.41,24.24,47.41,51.3s-20.88,49.23-47.41,51.3c1.34.1,3.17.17,4.54.17,28.43,0,51.48-23.05,51.48-51.48s-23.05-51.48-51.48-51.48Z"/><path class="cls-2" d="M728.11,71.72c-28.43,0-51.48,23.05-51.48,51.48s23.05,51.48,51.48,51.48,51.48-23.05,51.48-51.48-23.05-51.48-51.48-51.48ZM728.11,148.23c-13.82,0-25.02-11.2-25.02-25.03s11.2-25.02,25.02-25.02,25.02,11.2,25.02,25.02-11.2,25.03-25.02,25.03Z"/><path class="cls-2" d="M390.52,297.71l42.12-88.38h17.1l15.12,124.01h-19.08l-10.62-88.56-36.36,74.7h-16.2l-36.54-74.7-10.62,88.56h-19.08l15.12-124.01h16.92l42.12,88.38Z"/><path class="cls-2" d="M551.26,333.35v-12.06c-5.22,8.64-17.28,13.86-28.26,13.86-11.7,0-21.78-4.14-30.24-12.24-8.28-8.1-12.42-18.72-12.42-31.68s4.14-23.4,12.42-31.5c8.46-8.1,18.54-12.24,30.24-12.24,10.98,0,22.68,4.86,28.26,13.68v-11.88h18.36v84.06h-18.36ZM543.16,272.51c-5.22-4.68-11.16-7.02-18-7.02-7.2,0-13.32,2.34-18.36,7.2-4.86,4.68-7.38,10.8-7.38,18.36s2.52,13.86,7.38,18.72c5.04,4.86,11.16,7.38,18.36,7.38,14.4,0,25.92-10.26,25.92-26.1,0-7.74-2.7-14.04-7.92-18.54Z"/><path class="cls-2" d="M614.08,333.35h-18.54v-84.06h18.54v19.26c4.14-14.04,11.7-21.06,23.04-21.06,6.66,0,11.7,1.08,14.94,3.24l-3.06,17.1c-3.78-1.98-7.92-2.88-12.42-2.88-15.12,0-22.5,14.58-22.5,38.16v30.24Z"/><path class="cls-2" d="M721.54,333.35l-35.82-39.06v39.06h-18.36v-129.77h18.36v73.44l26.64-27.72h24.84l-35.82,36.54,43.92,47.52h-23.76Z"/><path class="cls-2" d="M833.14,297.89h-66.78c1.62,12.96,12.06,21.06,25.74,21.06,9.54,0,18.54-4.32,22.86-12.06l15.12,6.66c-7.2,14.22-22.14,21.6-38.88,21.6-12.24,0-22.5-4.14-30.78-12.24-8.28-8.1-12.42-18.72-12.42-31.86s4.14-23.58,12.42-31.5c8.28-8.1,18.54-12.06,30.78-12.06s22.32,3.96,30.24,12.06c7.92,7.92,11.88,18.36,11.88,31.5,0,3.42,0,5.58-.18,6.84ZM815.14,284.39c-1.62-12.96-11.16-20.7-23.94-20.7s-23.22,7.92-24.84,20.7h48.78Z"/><path class="cls-2" d="M878.14,217.43v31.86h17.82v15.3h-17.82v68.76h-18.54v-68.76h-15.12v-15.3h15.12v-31.86h18.54Z"/><path class="cls-2" d="M934.84,215.27c0,6.66-5.22,11.7-12.24,11.7-6.66,0-12.42-5.22-12.42-11.7s5.76-11.7,12.42-11.7c7.02,0,12.24,5.04,12.24,11.7ZM913.42,333.35v-84.06h18.36v84.06h-18.36Z"/><path class="cls-2" d="M976.23,333.35h-18.54v-84.06h18.54v12.6c4.5-9.18,15.66-14.4,25.74-14.4,20.34,0,32.04,13.14,32.04,36.9v48.96h-18.54v-46.8c0-13.14-6.84-20.88-17.64-20.88-12.24,0-21.6,7.2-21.6,22.5v45.18Z"/><path class="cls-2" d="M1073.07,343.97c4.32,8.64,14.22,14.04,23.58,14.04,18.72,0,28.08-10.98,28.08-33.12v-4.32c-4.86,9.18-16.74,14.58-28.44,14.58s-21.78-3.96-30.06-12.06-12.42-18.54-12.42-31.5,4.14-23.76,12.42-31.86,18.36-12.24,30.06-12.24,23.4,5.4,28.44,14.22v-12.42h18.18v71.64c0,36.18-15.48,54.36-46.26,54.36-16.38,0-30.96-8.64-38.88-23.58l7.56-3.96,7.74-3.78ZM1098.45,265.49c-7.2,0-13.32,2.52-18.18,7.38-4.86,4.86-7.38,10.98-7.38,18.54s2.52,13.86,7.38,18.72c4.86,4.86,10.98,7.2,18.18,7.2,6.66,0,12.78-2.34,18-7.02,5.22-4.86,7.92-11.16,7.92-18.9,0-16.02-11.34-25.92-25.92-25.92Z"/><path class="cls-2" d="M1217.79,333.35v-124.01h49.86c12.42,0,21.96,3.78,28.26,11.52,6.3,7.74,9.54,16.92,9.54,27.9s-3.24,20.16-9.54,27.72-15.66,11.34-28.26,11.34h-30.6v45.54h-19.26ZM1237.05,226.97v43.38h29.52c26.46,1.26,25.92-44.46.72-43.38h-30.24Z"/><path class="cls-2" d="M1386.09,333.35v-12.06c-5.22,8.64-17.28,13.86-28.26,13.86-11.7,0-21.78-4.14-30.24-12.24-8.28-8.1-12.42-18.72-12.42-31.68s4.14-23.4,12.42-31.5c8.46-8.1,18.54-12.24,30.24-12.24,10.98,0,22.68,4.86,28.26,13.68v-11.88h18.36v84.06h-18.36ZM1377.99,272.51c-5.22-4.68-11.16-7.02-18-7.02-7.2,0-13.32,2.34-18.36,7.2-4.86,4.68-7.38,10.8-7.38,18.36s2.52,13.86,7.38,18.72c5.04,4.86,11.16,7.38,18.36,7.38,14.4,0,25.92-10.26,25.92-26.1,0-7.74-2.7-14.04-7.92-18.54Z"/><path class="cls-2" d="M1448.91,333.35h-18.54v-84.06h18.54v19.26c4.14-14.04,11.7-21.06,23.04-21.06,6.66,0,11.7,1.08,14.94,3.24l-3.06,17.1c-3.78-1.98-7.92-2.88-12.42-2.88-15.12,0-22.5,14.58-22.5,38.16v30.24Z"/><path class="cls-2" d="M1527.38,217.43v31.86h17.82v15.3h-17.82v68.76h-18.54v-68.76h-15.12v-15.3h15.12v-31.86h18.54Z"/><path class="cls-2" d="M1581.2,333.35h-18.54v-84.06h18.54v12.6c4.5-9.18,15.66-14.4,25.74-14.4,20.34,0,32.04,13.14,32.04,36.9v48.96h-18.54v-46.8c0-13.14-6.84-20.88-17.64-20.88-12.24,0-21.6,7.2-21.6,22.5v45.18Z"/><path class="cls-2" d="M1743.74,297.89h-66.78c1.62,12.96,12.06,21.06,25.74,21.06,9.54,0,18.54-4.32,22.86-12.06l15.12,6.66c-7.2,14.22-22.14,21.6-38.88,21.6-12.24,0-22.5-4.14-30.78-12.24-8.28-8.1-12.42-18.72-12.42-31.86s4.14-23.58,12.42-31.5c8.28-8.1,18.54-12.06,30.78-12.06s22.32,3.96,30.24,12.06c7.92,7.92,11.88,18.36,11.88,31.5,0,3.42,0,5.58-.18,6.84ZM1725.74,284.39c-1.62-12.96-11.16-20.7-23.94-20.7s-23.22,7.92-24.84,20.7h48.78Z"/><path class="cls-2" d="M1782.08,333.35h-18.54v-84.06h18.54v19.26c4.14-14.04,11.7-21.06,23.04-21.06,6.66,0,11.7,1.08,14.94,3.24l-3.06,17.1c-3.78-1.98-7.92-2.88-12.42-2.88-15.12,0-22.5,14.58-22.5,38.16v30.24Z"/><path class="cls-2" d="M1854.98,296.99c-17.46-4.86-24.48-13.5-23.22-27.36.54-6.3,3.6-11.52,9.54-15.66,5.94-4.32,12.78-6.48,20.52-6.48,16.56,0,29.7,8.1,30.6,24.84h-17.64c-.72-5.94-5.94-9-12.24-9-4.86,0-10.26,1.8-11.88,4.68-1.44,2.34-1.62,4.86-.72,7.56.9,2.7,4.32,4.86,10.26,6.48l12.96,3.24c14.58,3.6,21.96,11.7,21.96,24.48,0,15.84-13.86,25.38-33.48,25.38-8.46,0-15.84-2.52-22.32-7.38-6.48-5.04-9.72-11.7-9.9-20.16h17.1c.9,7.38,7.02,12.06,16.56,12.06,8.64,0,14.94-3.78,14.94-10.08,0-4.86-3.96-8.1-11.7-9.9l-11.34-2.7Z"/></g></svg>